<svg width="800" height="100" viewBox="0 0 800 100" fill="none" xmlns="http://www.w3.org/2000/svg">
<rect width="800" height="100" fill="#516668"/>
<rect width="800" height="100" fill="white" fill-opacity="0.8"/>
<path d="M275.75 30L287.2 60.1C288.05 62.45 289.05 63.5 291.4 63.75V65H278.4V63.75C282.15 63.5 283 62.75 282.2 60.65L279.75 54.25H266.1L263.7 60.65C262.95 62.55 264.1 63.5 267.95 63.75V65H256.85V63.75C259.35 63.5 260.55 62.45 261.35 60.35L272.9 30H275.75ZM272.85 36.4L266.95 52.05H278.9L272.85 36.4ZM305.811 34.15V33.15L312.011 29.25H313.561V61.15C313.561 62.95 314.211 63.5 316.961 63.75V65C314.411 65 311.711 65.25 309.161 65.75V63.15C307.661 64.8 305.461 65.75 302.511 65.75C295.861 65.75 292.111 60.5 292.111 53.7C292.111 46.95 295.861 41.7 302.511 41.7C305.461 41.7 307.661 42.65 309.161 44.3V35.8C309.161 34.6 308.711 34.15 307.561 34.15H305.811ZM309.161 60.85V46.6C307.911 44.9 306.061 43.85 303.611 43.85C298.611 43.85 296.911 47.9 296.911 53.7C296.911 59.5 298.611 63.6 303.611 63.6C306.061 63.6 307.911 62.55 309.161 60.85ZM324.242 41.95C326.092 41.95 327.392 43.35 327.392 45.05C327.392 46.85 326.092 48.2 324.242 48.2C322.342 48.2 321.092 46.85 321.092 45.05C321.092 43.35 322.342 41.95 324.242 41.95ZM324.242 59.25C326.092 59.25 327.392 60.6 327.392 62.35C327.392 64.1 326.092 65.5 324.242 65.5C322.342 65.5 321.092 64.1 321.092 62.35C321.092 60.6 322.342 59.25 324.242 59.25ZM361.453 45.8C366.053 47.85 369.503 50.35 369.503 55.9C369.503 61.45 365.153 65.75 357.053 65.75C349.103 65.75 345.003 61 345.003 56.65C345.003 51.45 348.503 49 352.403 47.2C349.103 45.45 346.503 42.9 346.503 38C346.503 34.45 349.553 29.25 357.803 29.25C364.403 29.25 368.053 33.15 368.053 37.2C368.053 41.9 365.003 44.15 361.453 45.8ZM358.103 31.4C353.803 31.4 351.203 33.45 351.203 37C351.203 41.25 354.653 42.85 358.603 44.5C362.053 42.95 364.953 41.15 364.953 37.4C364.953 34 362.703 31.4 358.103 31.4ZM356.903 63.6C362.853 63.6 364.853 60.1 364.853 57.15C364.853 52.8 361.653 51 355.153 48.5C351.503 50.15 348.403 52.15 348.403 56.45C348.403 60.05 350.903 63.6 356.903 63.6ZM386.159 29.25C394.309 29.25 398.409 37.1 398.409 47.5C398.409 57.9 394.309 65.75 386.159 65.75C378.009 65.75 373.909 57.9 373.909 47.5C373.909 37.1 378.009 29.25 386.159 29.25ZM386.159 63.55C392.009 63.55 393.159 56.85 393.159 47.5C393.159 38.1 392.009 31.4 386.159 31.4C380.309 31.4 379.159 38.1 379.159 47.5C379.159 56.85 380.309 63.55 386.159 63.55ZM415.065 29.25C423.215 29.25 427.315 37.1 427.315 47.5C427.315 57.9 423.215 65.75 415.065 65.75C406.915 65.75 402.815 57.9 402.815 47.5C402.815 37.1 406.915 29.25 415.065 29.25ZM415.065 63.55C420.915 63.55 422.065 56.85 422.065 47.5C422.065 38.1 420.915 31.4 415.065 31.4C409.215 31.4 408.065 38.1 408.065 47.5C408.065 56.85 409.215 63.55 415.065 63.55ZM445.821 61.4L441.321 55.45L436.721 61.4C435.621 62.8 436.471 63.55 439.021 63.75V65H430.021V63.75C431.821 63.55 432.771 63 434.021 61.4L440.021 53.6L434.471 46.05C433.271 44.45 432.671 43.85 430.821 43.7V42.45H441.821V43.7C439.221 43.9 438.771 44.7 439.821 46.05L443.271 50.65L446.821 46.05C447.771 44.85 447.371 43.9 444.571 43.7V42.45H453.821V43.7C451.771 43.9 450.771 44.5 449.571 46.05L444.571 52.5L451.171 61.4C452.421 63 453.171 63.55 454.621 63.75V65H443.871V63.75C446.921 63.6 446.921 62.85 445.821 61.4ZM478.307 65H460.807V63.75C465.907 63.5 467.157 63.2 467.157 59.4V36.75C467.157 35.55 466.707 35.15 465.607 35.15H460.857V34.1L470.107 29.25H471.957V59.4C471.957 63.2 473.257 63.5 478.307 63.75V65ZM498.464 29.25C506.614 29.25 510.714 37.1 510.714 47.5C510.714 57.9 506.614 65.75 498.464 65.75C490.314 65.75 486.214 57.9 486.214 47.5C486.214 37.1 490.314 29.25 498.464 29.25ZM498.464 63.55C504.314 63.55 505.464 56.85 505.464 47.5C505.464 38.1 504.314 31.4 498.464 31.4C492.614 31.4 491.464 38.1 491.464 47.5C491.464 56.85 492.614 63.55 498.464 63.55ZM527.37 29.25C535.52 29.25 539.62 37.1 539.62 47.5C539.62 57.9 535.52 65.75 527.37 65.75C519.22 65.75 515.12 57.9 515.12 47.5C515.12 37.1 519.22 29.25 527.37 29.25ZM527.37 63.55C533.22 63.55 534.37 56.85 534.37 47.5C534.37 38.1 533.22 31.4 527.37 31.4C521.52 31.4 520.37 38.1 520.37 47.5C520.37 56.85 521.52 63.55 527.37 63.55Z" fill="black" fill-opacity="0.2"/>
</svg>
