<svg width="141" height="200" viewBox="0 0 141 200" fill="none" xmlns="http://www.w3.org/2000/svg">
<path d="M14.0133 156.917L14.016 156.919L14.043 156.943C14.0431 156.944 14.0433 156.944 14.0434 156.944C26.1525 167.73 38.2165 178.463 51.2042 186.264C54.4038 188.181 57.0556 189.848 59.2872 191.262C59.6479 191.49 59.9962 191.711 60.333 191.925C62.0981 193.045 63.549 193.965 64.8143 194.72C67.9175 196.571 69.2862 197.016 70.3945 196.991C71.5567 196.964 72.9951 196.413 76.2288 194.483C77.1858 193.912 78.2894 193.228 79.5567 192.443C82.2974 190.745 85.8034 188.574 90.2469 186.04M14.0133 156.917L91.7327 188.646M14.0133 156.917C6.33121 150.088 2.83352 140.043 3.00605 126.577C3.40827 98.3149 3.30982 70.0194 3.2115 41.7639C3.17303 30.7071 3.13458 19.6564 3.12616 8.61616V3M14.0133 156.917L3.12616 3M90.2469 186.04L91.7327 188.646M90.2469 186.04C90.2464 186.041 90.246 186.041 90.2455 186.041L91.7327 188.646M90.2469 186.04C104.9 177.676 118.637 167.448 130.084 153.122M91.7327 188.646C106.603 180.159 120.674 169.704 132.428 154.995M130.084 153.122C130.084 153.123 130.084 153.123 130.083 153.124L132.428 154.995M130.084 153.122C135.391 146.473 138.091 138.934 138.006 128.938M130.084 153.122L132.428 154.995M132.428 154.995L138.006 128.938M138.006 128.938C138.006 128.939 138.006 128.94 138.006 128.942L141.006 128.913L138.006 128.938ZM138.006 128.938C137.727 99.4739 137.718 69.9877 137.709 40.5132C137.706 29.9074 137.703 19.3031 137.687 8.70187V8.69739V3M138.006 128.938L140.687 8.69739V3H137.687M137.687 3H3.12616M137.687 3H3.12616" stroke="white" stroke-width="6"/>
<path d="M68.406 44.1048H73.9339C73.9339 44.1048 73.5572 39.9506 73.5572 37.5804C75.9234 37.5804 80.3669 38.2557 80.3669 38.2557V32.1324C80.3669 32.1324 75.9232 32.8097 73.5572 32.8097C73.5572 30.4415 74.2305 26 74.2305 26H68.109C68.109 26 68.7862 30.4415 68.7862 32.8097C66.4161 32.8097 61.9765 32.1344 61.9765 32.1344V38.2577C61.9765 38.2577 66.4163 37.5804 68.7862 37.5804C68.7862 39.9506 68.406 44.1048 68.406 44.1048Z" fill="white"/>
<path d="M59.5379 75.662H82.8053C82.8053 75.662 86.9103 64.2261 88.2799 58.3332C88.7478 56.3111 86.9103 53.8287 83.8288 53.8287C80.7512 53.8287 71.1719 53.8287 71.1719 53.8287C71.1719 53.8287 61.5889 53.8287 58.5111 53.8287C55.4298 53.8287 53.5921 56.3111 54.0639 58.3332C55.4294 64.2261 59.5379 75.662 59.5379 75.662Z" fill="white"/>
<path d="M87.6331 108.05C81.7211 98.644 81.2112 89.1903 81.2112 89.1903H61.128C61.128 89.1903 60.6183 98.644 54.7101 108.05C50.959 114.014 45.6595 115.67 46.0172 121.995C46.1808 124.924 48.9959 125.516 48.9959 125.516H93.3433C93.3433 125.516 96.1623 124.925 96.326 121.995C96.6799 115.67 91.3802 114.014 87.6331 108.05Z" fill="white"/>
<path d="M83.2885 78.7549H59.0549C59.0549 80.5906 57.2859 81.9029 55.5206 82.9511C53.7515 84.0011 54.193 86.0992 55.5206 86.0992H86.8228C88.1467 86.0992 88.5881 84.0009 86.8228 82.9511C85.0536 81.9029 83.2885 80.5906 83.2885 78.7549Z" fill="white"/>
<path d="M78.126 47.1958H64.2135V50.7358H78.126V47.1958Z" fill="white"/>
<path d="M48.9959 128.609L46.5689 132.701V138H95.7743V132.701L93.3433 128.609H48.9959Z" fill="white"/>
</svg>
