<svg width="400" height="96" viewBox="0 0 400 96" fill="none" xmlns="http://www.w3.org/2000/svg">
<path d="M228.951 63.4648L226.753 59.2197C226.753 59.2197 226.764 59.2027 226.776 59.1913L226.409 58.4866C226.409 58.4866 226.397 58.5037 226.391 58.5094L225.358 56.509C225.358 56.509 225.358 56.5033 225.364 56.4977C225.364 56.4977 224.991 55.793 224.985 55.7987L224.383 54.6337L222.667 51.3661L222.702 51.349H222.661V49.0134V25.981C222.661 14.3369 229.938 10.7681 230.012 10.734L231.711 9.93274L229.944 9.29059C229.616 9.17125 222.329 6.57989 218.604 10.4442C215.787 7.3357 211.603 8.30178 209.664 9.33605L208.286 10.0691L209.692 10.734C209.744 10.7568 209.801 10.7852 209.853 10.8136C211.385 11.5808 212.498 12.9105 212.986 14.5585C213.48 16.2179 213.25 18.0251 212.361 19.5196L209.061 25.0547L206.674 20.4459C203.615 14.5358 205.228 7.3357 210.513 3.32364C210.725 3.15884 210.857 3.0736 210.869 3.06792L212.102 2.23823L210.719 1.69268C207.942 0.590212 202.284 0.215147 197.997 5.33535C193.722 0.203781 188.064 0.584529 185.286 1.68699L183.909 2.23254L185.137 3.06223C185.137 3.06223 185.275 3.15884 185.493 3.31796C190.778 7.33002 192.391 14.5301 189.332 20.4403L186.945 25.049L183.645 19.514C182.756 18.0251 182.532 16.2122 183.02 14.5529C183.507 12.9049 184.621 11.5751 186.153 10.8079C186.21 10.7795 186.262 10.7568 186.313 10.7283L187.719 10.0634L186.342 9.33037C184.397 8.2961 180.219 7.33002 177.402 10.4385C173.677 6.57421 166.389 9.16557 166.062 9.2849L164.295 9.92706L165.993 10.7283C166.068 10.7624 173.344 14.3312 173.344 25.9753V33.255C173.344 38.7389 173.396 44.2342 173.396 49.7124C173.402 50.3091 173.385 50.9171 173.385 51.5195H173.344L173.379 51.5366L165.615 66.3232L165.58 66.3062L160.421 76.2738C157.208 82.4908 151.24 81.1497 150.993 81.0928L150 80.8485L150.011 81.86C150.029 83.4057 150.539 84.6673 151.526 85.605C152.554 86.5767 153.885 86.9859 154.878 87.1507C153.753 88.8783 152.33 91.6799 155.279 94.6804L155.469 94.868L155.733 94.9077C156.134 94.9646 156.513 94.993 156.863 94.993C160.186 94.993 161.448 92.5551 162.131 90.8275C162.854 91.5265 163.962 92.3618 165.362 92.6176C166.567 92.8392 167.761 92.5948 168.908 91.9015C169.855 92.3278 171.152 92.6915 172.535 92.6915C174.194 92.6915 175.978 92.1686 177.413 90.5945C180.231 93.6916 184.403 92.7255 186.348 91.6913L187.725 90.9582L186.313 90.2933C182.233 88.3668 181.522 83.9797 181.482 81.377H181.436C181.436 72.7164 181.476 64.0615 181.476 55.4009H193.234C191.702 59.3675 187.851 60.3392 187.679 60.379L186.686 60.612L187.163 61.5099C187.892 62.8795 188.925 63.7716 190.233 64.1581C191.593 64.5616 192.964 64.3229 193.929 64.0217C193.722 66.0675 193.745 69.2044 197.75 70.5455L198.003 70.6308L198.255 70.5455C202.261 69.2044 202.278 66.0675 202.077 64.0217C203.041 64.3229 204.413 64.5616 205.773 64.1581C207.081 63.7716 208.114 62.8795 208.843 61.5099L209.314 60.6177L208.326 60.379C208.149 60.3392 204.298 59.3675 202.766 55.4009H214.524C214.524 59.4868 214.564 63.5671 214.564 67.653V81.377H214.518C214.478 83.9797 213.767 88.3668 209.687 90.2933L208.275 90.9582L209.652 91.6913C210.605 92.2027 212.102 92.6915 213.709 92.6915C215.368 92.6915 217.152 92.1686 218.587 90.5945C221.215 93.4757 225.014 92.8392 227.092 91.9015C228.245 92.5948 229.439 92.8335 230.638 92.6176C232.032 92.3618 233.146 91.5322 233.863 90.8332C234.62 92.7426 236.078 95.5272 240.267 94.9134L240.531 94.8736L240.721 94.6861C243.67 91.6856 242.241 88.884 241.122 87.1564C242.115 86.9859 243.446 86.5824 244.474 85.6107C245.461 84.673 245.971 83.4114 245.989 81.8657L246 80.8542L245.007 81.0985C244.944 81.1156 238.804 82.5249 235.579 76.2795L229.777 65.073C229.777 65.073 229.806 65.0275 229.823 65.0048L228.991 63.4193C228.991 63.4193 228.962 63.4534 228.951 63.4705V63.4648ZM190.738 21.162C193.98 14.8995 192.511 7.34139 187.295 2.76673C189.521 2.35756 193.911 2.31778 197.366 7.07429L198.009 7.96081L198.651 7.07429C202.106 2.32347 206.496 2.35756 208.722 2.76673C203.506 7.34139 202.037 14.9052 205.279 21.162L208.12 26.6516L206.806 28.8565L199.937 15.5871C198.99 13.7573 198.456 11.7228 198.37 9.66565C198.376 9.46676 198.387 9.27354 198.387 9.07464H197.636C197.636 9.27354 197.647 9.46676 197.653 9.66565C197.567 11.7171 197.033 13.7573 196.086 15.5871L189.217 28.8622L187.903 26.6572L190.744 21.1677L190.738 21.162ZM198.003 18.1614L190.956 31.7945L189.636 29.5839L196.712 15.9111C197.291 14.7859 197.722 13.5925 198.003 12.3593C198.284 13.5925 198.714 14.7859 199.294 15.9111L206.37 29.5782L205.05 31.7888L198.003 18.1558V18.1614ZM204.097 33.3914L198.003 43.6261L191.909 33.3914L198.003 21.6052L204.097 33.3914ZM168.208 10.3135C170.538 9.77931 174.808 9.2849 176.759 12.1434L177.413 13.1037L178.067 12.1434C179.869 9.50653 182.56 9.72248 184.19 10.1828C182.899 11.1659 181.964 12.5184 181.487 14.1153C180.873 16.1895 181.155 18.4513 182.268 20.3152L197.997 46.7175L213.721 20.3152C214.828 18.4513 215.115 16.1895 214.501 14.1153C214.031 12.5184 213.089 11.1602 211.798 10.1828C213.428 9.72248 216.125 9.50653 217.927 12.1434L218.581 13.1037L219.235 12.1434C221.181 9.29059 225.45 9.78499 227.786 10.3135C225.399 12.1604 221.06 16.7805 221.06 25.981V48.2462L218.937 44.1432V16.9681L218.271 16.7862L200.143 47.2233H195.839L177.711 16.7862L177.046 16.9681V44.1432L174.922 48.2462V25.981C174.922 16.7805 170.578 12.1547 168.191 10.3135H168.208ZM203.46 47.229H200.987L218.237 18.2637V42.7623L216.114 38.6593V25.981L203.46 47.229ZM214.53 31.7377V35.602L213.457 33.5334L214.53 31.7377ZM179.898 25.9867V38.665L177.775 42.768V18.2637L195.025 47.229H192.551L179.898 25.981V25.9867ZM182.555 33.5334L181.482 35.602V31.7377L182.555 33.5334ZM190.715 47.229H184.758L187.524 41.8758L190.709 47.229H190.715ZM186.572 40.2789L182.165 48.8031H213.847L209.44 40.2789L210.76 38.0626L217.462 51.0081H178.549L185.252 38.0626L186.572 40.2789ZM205.302 47.229L208.487 41.8758L211.253 47.229H205.297H205.302ZM167.807 80.0131L173.356 69.284V81.144C173.356 83.6046 172.776 87.9406 169.012 90.0433C167.95 88.9124 165.127 85.2015 167.812 80.0131H167.807ZM184.179 90.8559C182.543 91.3105 179.869 91.5094 178.079 88.8896L177.424 87.9293L176.77 88.8896C174.98 91.5151 172.3 91.3105 170.67 90.8559C172.679 89.4125 174.951 86.5824 174.951 81.144V66.2153L177.074 62.1066V84.4173H177.786V60.7257L179.909 56.617V81.1383C179.909 86.5768 182.182 89.4068 184.19 90.8502L184.179 90.8559ZM206.932 61.5667C206.49 62.1066 205.962 62.4646 205.331 62.6521C203.546 63.1863 201.555 62.1236 201.538 62.118L200.252 61.4133L200.367 62.8681C200.384 63.0954 200.413 63.3454 200.447 63.6125C200.671 65.5106 200.952 67.8576 198.014 68.9714C195.082 67.8576 195.357 65.5106 195.581 63.6125C195.616 63.3454 195.644 63.0897 195.662 62.8681L195.771 61.4247L194.485 62.118C194.485 62.118 192.477 63.192 190.686 62.6578C190.055 62.4703 189.527 62.1123 189.085 61.5724C190.686 60.9302 193.693 59.2481 194.916 55.4122H197.125C197.475 57.4126 197.653 59.447 197.653 61.4758V65.7322H198.364V61.4758C198.364 59.447 198.542 57.4126 198.892 55.4122H201.102C202.33 59.2481 205.331 60.9302 206.932 61.5724V61.5667ZM197.854 55.4066H198.169C198.112 55.7475 198.06 56.0885 198.009 56.4295C197.963 56.0885 197.911 55.7475 197.848 55.4066H197.854ZM219.258 88.8896L218.604 87.9293L217.95 88.8896C216.16 91.5151 213.48 91.3105 211.85 90.8559C213.858 89.4125 216.131 86.5824 216.131 81.144V56.6227L218.254 60.7313V84.423H218.966V62.1123L221.089 66.2209V81.1497C221.089 86.5881 223.361 89.4182 225.37 90.8616C223.734 91.3162 221.06 91.5151 219.27 88.8953L219.258 88.8896ZM227.017 90.0489C223.247 87.952 222.667 83.6103 222.667 81.1497V69.2896L228.216 80.0188C230.919 85.2527 228.096 88.9237 227.023 90.0546L227.017 90.0489ZM234.179 76.9899C237.1 82.6386 242.126 82.9398 244.324 82.7636C244.181 83.4512 243.877 84.0138 243.4 84.4684C242.058 85.7471 239.797 85.7016 239.774 85.7016L238.305 85.6561L239.074 86.9007C239.194 87.0939 239.338 87.3042 239.487 87.5315C240.56 89.117 241.885 91.0832 239.785 93.4018C236.658 93.7314 235.826 91.5208 235.154 89.7307C235.057 89.475 234.971 89.242 234.879 89.0317L234.311 87.6963L233.49 88.8953C233.49 88.8953 232.193 90.7536 230.357 91.0889C229.852 91.1798 229.358 91.1514 228.859 90.998L228.905 90.9696L228.475 90.765C229.909 89.0601 232.503 84.8833 229.622 79.3027L216.458 53.8381H179.559L166.395 79.3027C163.514 84.8833 166.102 89.0601 167.543 90.765L167.112 90.9696L167.158 90.998C166.659 91.1457 166.165 91.1798 165.66 91.0889C163.824 90.7593 162.539 88.9181 162.527 88.901L161.707 87.6906L161.139 89.0374C161.052 89.2477 160.961 89.4807 160.863 89.7364C160.192 91.5265 159.365 93.7428 156.232 93.4075C154.132 91.0889 155.457 89.1283 156.53 87.5371C156.685 87.3098 156.823 87.0996 156.944 86.9063L157.713 85.6618L156.244 85.7073C156.244 85.7073 153.96 85.7471 152.623 84.4798C152.14 84.0252 151.836 83.4626 151.693 82.7693C153.885 82.9397 158.918 82.6442 161.839 76.9955L183.507 35.1303L184.821 37.3352L157.012 91.0662L157.649 91.3901L178.228 51.6332H217.789L238.368 91.3901L239.005 91.0662L211.196 37.3409L212.51 35.136L234.179 76.9955V76.9899Z" fill="#022A42"/>
<path d="M235.167 62.899C235.362 62.8443 235.51 62.7661 235.611 62.6645C235.712 62.5629 235.829 62.4066 235.969 62.1799C236.14 61.8986 236.28 61.5938 236.389 61.2655C236.498 60.9451 236.584 60.5543 236.646 60.101C236.7 59.6477 236.747 59.1006 236.77 58.452C236.801 57.8033 236.809 56.9983 236.809 56.037L236.895 41.086C236.895 40.2966 236.895 39.6479 236.871 39.1399C236.856 38.6319 236.833 38.2099 236.786 37.866C236.747 37.5299 236.692 37.2486 236.638 37.0219C236.584 36.7953 236.498 36.553 236.381 36.3029C236.124 35.6855 235.72 35.3259 235.159 35.2478V34.9508C235.331 34.9821 235.478 34.9977 235.603 35.0133C235.728 35.029 235.86 35.0368 236.008 35.0368H237.907C238.552 35.0055 239.105 34.9977 239.549 34.9977H240.607L240.988 34.9586V35.1306C240.988 35.4979 241.105 36.0762 241.346 36.8656C241.587 37.655 241.891 38.46 242.257 39.2806L250.358 57.3265L258.622 39.0696C258.794 38.671 258.957 38.2724 259.128 37.866C259.3 37.4596 259.447 37.0766 259.572 36.7249C259.696 36.3732 259.798 36.0528 259.868 35.7714C259.938 35.4901 259.977 35.2947 259.977 35.1775V34.9664L260.272 35.0055C260.584 35.0055 260.98 35.0055 261.478 35.029C261.969 35.0446 262.467 35.0524 262.973 35.0524H264.451C264.646 35.0524 264.833 35.0524 264.996 35.029C265.167 35.0133 265.362 34.9899 265.587 34.9664V35.2634C265.331 35.3494 265.136 35.4197 264.996 35.4744C264.685 35.6698 264.459 35.8965 264.319 36.1544C264.21 36.3498 264.117 36.5452 264.047 36.7249C263.977 36.9125 263.93 37.1548 263.899 37.4674C263.868 37.78 263.852 38.202 263.836 38.7413C263.821 39.2806 263.813 39.9996 263.813 40.8984V55.9354C263.813 57.2327 263.836 58.3191 263.875 59.1788C263.914 60.0385 264 60.7419 264.132 61.2733C264.257 61.8126 264.428 62.1956 264.638 62.4378C264.848 62.6801 265.121 62.8443 265.463 62.9224V63.2194H265.253C264.887 63.1881 264.451 63.1803 263.945 63.1803H260.443C259.907 63.1803 259.447 63.1959 259.05 63.2194H258.84V62.9224C259.121 62.8677 259.346 62.727 259.517 62.5004C259.626 62.3597 259.728 62.219 259.813 62.0783C259.899 61.9377 259.969 61.7813 260.023 61.6094C260.109 61.3828 260.179 61.1561 260.233 60.9295C260.288 60.7028 260.335 60.3902 260.358 59.9994C260.389 59.6008 260.405 59.085 260.42 58.452C260.436 57.8189 260.443 56.9905 260.443 55.9744L260.615 39.8746L253.525 55.5915C253.105 56.5215 252.755 57.3187 252.467 57.983C252.187 58.6473 251.961 59.2101 251.79 59.679C251.619 60.1479 251.502 60.5465 251.432 60.8904C251.362 61.2264 251.323 61.5234 251.323 61.7813C251.323 62.094 251.37 62.3362 251.471 62.5238C251.572 62.7114 251.759 62.938 252.039 63.2194H247.65C247.961 62.9068 248.148 62.6723 248.218 62.5238C248.288 62.3675 248.327 62.1487 248.327 61.8673C248.327 61.6094 248.288 61.3202 248.218 60.9998C248.148 60.6715 248.023 60.2573 247.836 59.7493C247.65 59.2413 247.416 58.6317 247.121 57.9283C246.825 57.2249 246.451 56.373 246 55.3883L239.004 39.8824L239.128 56.0682C239.128 57.0842 239.167 58.0534 239.237 58.9678C239.307 59.8822 239.401 60.5152 239.51 60.8513C239.619 61.3046 239.836 61.7266 240.163 62.1252C240.49 62.5238 240.833 62.7895 241.198 62.9302V63.2272H240.903C240.342 63.1959 239.836 63.1881 239.385 63.1881H237.152C236.7 63.1881 236.156 63.2038 235.51 63.2272H235.175V62.9302L235.167 62.899Z" fill="#022A42"/>
<path d="M276.444 62.602C274.739 61.922 273.284 60.9685 272.078 59.7415C270.872 58.5145 269.93 57.0452 269.253 55.3336C268.576 53.622 268.241 51.7385 268.241 49.6752C268.241 47.6119 268.568 45.6815 269.23 43.7901C269.891 41.8988 270.84 40.2341 272.078 38.7882C274.498 35.9356 277.743 34.5132 281.821 34.5132C283.844 34.5132 285.712 34.8805 287.409 35.6151C289.113 36.3498 290.584 37.3658 291.837 38.6632C293.089 39.9605 294.054 41.5158 294.747 43.3212C295.44 45.1266 295.782 47.0883 295.782 49.2063C295.782 51.3242 295.447 53.2703 294.77 55.0288C294.093 56.7951 293.152 58.3113 291.945 59.5852C290.739 60.8591 289.284 61.8439 287.603 62.5473C285.922 63.2507 284.062 63.6102 282.031 63.6102C280 63.6102 278.14 63.2741 276.444 62.5942V62.602ZM286.124 61.078C287.362 60.5153 288.42 59.6868 289.292 58.6005C290.163 57.5141 290.825 56.1933 291.276 54.638C291.728 53.0827 291.953 51.3321 291.953 49.386C291.953 45.1813 291.066 41.93 289.292 39.6401C287.517 37.3502 285.004 36.2091 281.743 36.2091C278.482 36.2091 276.195 37.3502 274.552 39.6401C272.91 41.93 272.086 45.2594 272.086 49.6361C272.086 53.5907 272.926 56.6231 274.615 58.7411C276.303 60.8591 278.731 61.922 281.914 61.922C283.486 61.922 284.895 61.6407 286.132 61.078H286.124Z" fill="#022A42"/>
<path d="M298.311 62.899C298.708 62.8677 299.027 62.727 299.284 62.4769C299.65 62.1096 299.899 61.6485 300.023 61.1014C300.148 60.5543 300.21 59.6555 300.21 58.4129V39.5151C300.21 38.1005 300.078 37.0923 299.805 36.4826C299.541 35.873 299.035 35.4588 298.311 35.2322V34.9352L298.568 34.9743C298.879 34.9743 299.307 34.9743 299.852 34.9977C300.397 35.0133 301.082 35.0212 301.899 35.0212C302.716 35.0212 303.362 35.0211 303.922 34.9977C304.482 34.9821 304.918 34.9743 305.23 34.9743L305.44 34.9352V35.2322C304.708 35.4588 304.218 35.873 303.961 36.4826C303.704 37.0923 303.58 38.1005 303.58 39.5151V47.2289H318.467V39.5151C318.467 38.1005 318.335 37.0923 318.062 36.4826C317.798 35.873 317.292 35.4588 316.568 35.2322V34.9352L316.825 34.9743C317.136 34.9743 317.564 34.9743 318.109 34.9977C318.654 35.0133 319.338 35.0212 320.156 35.0212C320.973 35.0212 321.65 35.0211 322.202 34.9977C322.747 34.9821 323.183 34.9743 323.486 34.9743L323.743 34.9352V35.2322C323.012 35.4588 322.514 35.873 322.249 36.4826C321.984 37.0923 321.844 38.1005 321.844 39.5151V58.4129C321.844 59.2569 321.86 59.8822 321.883 60.273C321.914 60.6716 321.992 61.0467 322.14 61.414C322.42 62.3206 322.957 62.813 323.743 62.899V63.196H323.486C323.152 63.1647 322.7 63.1569 322.14 63.1569H318.132C317.595 63.1569 317.159 63.1725 316.825 63.196H316.568V62.899C316.965 62.8677 317.284 62.727 317.541 62.4769C317.907 62.1096 318.156 61.6485 318.28 61.1014C318.405 60.5543 318.467 59.6555 318.467 58.4129V49.089H303.58V58.4129C303.58 59.2569 303.595 59.8744 303.619 60.2573C303.65 60.6403 303.72 61.0311 303.829 61.4218C304.14 62.3284 304.669 62.8208 305.432 62.9068V63.2038H305.175C304.864 63.1725 304.428 63.1647 303.868 63.1647H299.86C299.3 63.1647 298.864 63.1803 298.552 63.2038H298.296V62.9068L298.311 62.899Z" fill="#022A42"/>
<path d="M327.066 62.899C327.463 62.8677 327.782 62.727 328.039 62.4769C328.404 62.1096 328.653 61.6485 328.778 61.1014C328.903 60.5543 328.965 59.6555 328.965 58.4129V39.5151C328.965 38.1005 328.832 37.0923 328.56 36.4826C328.296 35.873 327.79 35.4588 327.066 35.2322V34.9352L327.323 34.9743H328.42C328.98 34.9743 329.727 34.9899 330.653 35.0133H331.494C332.14 35.0133 332.677 35.0133 333.097 34.9899C333.517 34.9743 333.844 34.9664 334.07 34.9664L334.241 34.9274V35.2244C333.509 35.3963 333.011 35.7871 332.747 36.4123C332.482 37.0375 332.342 38.0614 332.342 39.5072V61.1952L341.836 61.0233C342.965 60.9685 343.805 60.8669 344.366 60.7263C344.762 60.6168 345.058 60.4605 345.253 60.2573C345.447 60.0541 345.618 59.7181 345.759 59.2413H346.054C346.023 59.6087 346.015 59.9056 346.015 60.1323V62.1643C346.015 62.5316 346.031 62.8677 346.054 63.1803V63.5164C345.883 63.4304 345.72 63.3679 345.548 63.3288C345.377 63.2897 345.19 63.2585 344.98 63.2428C344.77 63.2272 344.506 63.2116 344.202 63.2038C343.891 63.1881 343.509 63.1803 343.066 63.1803H327.081V62.8833L327.066 62.899Z" fill="#022A42"/>
<path d="M349.696 62.899C350.093 62.8677 350.412 62.727 350.669 62.4769C351.035 62.1096 351.284 61.6485 351.408 61.1014C351.533 60.5543 351.595 59.6555 351.595 58.4129V39.5151C351.595 38.1005 351.463 37.0923 351.19 36.4827C350.926 35.873 350.42 35.4588 349.696 35.2322V34.9352H365.938C366.132 34.9352 366.358 34.9196 366.615 34.8961C366.84 34.8961 367.027 34.8961 367.183 34.8727C367.338 34.857 367.486 34.8414 367.626 34.8101C367.766 34.7789 367.891 34.7554 368.008 34.7242C368.117 34.6929 368.303 34.6538 368.552 34.5991C368.498 34.9664 368.467 35.2634 368.467 35.4901V36.4201C368.467 36.7327 368.467 37.0297 368.49 37.3111C368.506 37.5925 368.513 37.8738 368.513 38.1552L368.552 38.4131H368.257C368.117 38.1864 368 38.0145 367.899 37.9051C367.797 37.7957 367.665 37.6784 367.494 37.569C367.214 37.3736 366.801 37.2251 366.249 37.1235C365.704 37.0219 365.05 36.9594 364.288 36.9359L354.965 36.85V47.354L363.953 47.182C365.019 47.182 365.782 47.1039 366.233 46.9476C366.685 46.7913 366.98 46.5177 367.12 46.1191H367.416C367.385 46.4005 367.377 46.6975 367.377 47.0101V49.4642C367.377 49.6595 367.393 49.9018 367.416 50.1832H367.12C367.066 50.0112 366.926 49.8549 366.7 49.7143C366.475 49.5423 366.225 49.4407 365.938 49.3938C365.657 49.3547 365.019 49.3313 364.039 49.3313L354.973 49.2063V61.1952L365.011 61.0233C366.14 60.9685 366.98 60.8669 367.541 60.7263C367.938 60.6168 368.225 60.4605 368.428 60.2573C368.63 60.0541 368.809 59.7181 368.973 59.2413H369.229C369.198 59.6087 369.19 59.9056 369.19 60.1323V62.1643C369.19 62.5316 369.206 62.8677 369.229 63.1803V63.5164C369.058 63.4304 368.895 63.3679 368.724 63.3288C368.552 63.2897 368.366 63.2585 368.155 63.2428C367.945 63.2272 367.681 63.2116 367.377 63.2038C367.066 63.1881 366.685 63.1803 366.241 63.1803H349.704V62.8833L349.696 62.899Z" fill="#022A42"/>
<path d="M374.101 62.899C374.498 62.8677 374.817 62.727 375.074 62.4769C375.44 62.1096 375.689 61.6485 375.813 61.1014C375.938 60.5543 376 59.6555 376 58.4129V39.515C376 38.1004 375.868 37.0922 375.595 36.4826C375.331 35.873 374.825 35.4588 374.101 35.2322V34.9352L374.358 34.9742C374.669 34.9742 375.043 34.9742 375.478 34.9977C375.914 35.0133 376.412 35.0211 376.973 35.0211C377.424 35.0211 377.883 35.0211 378.366 34.9977C378.84 34.9821 379.237 34.9742 379.549 34.9742L385.074 34.8023H385.665C388.98 34.8023 391.525 35.4275 393.3 36.6858C395.074 37.9441 395.961 39.7573 395.961 42.1332C395.961 44.5091 395.082 46.4161 393.323 47.8698C391.564 49.3235 389.152 50.1206 386.086 50.2613L393.471 58.1393C393.556 58.2566 394.342 58.999 395.836 60.3824C396.233 60.7497 396.568 61.0701 396.848 61.3359C397.128 61.6016 397.37 61.8126 397.564 61.9533C397.821 62.1487 398.109 62.3362 398.428 62.5004C398.755 62.6723 399.066 62.7974 399.377 62.8833V63.1803H399.167C398.91 63.149 398.49 63.1412 397.899 63.1412H392.669C391.938 63.1412 391.432 63.1569 391.152 63.1803H390.942V62.8833C391.222 62.7426 391.416 62.6254 391.51 62.5238C391.611 62.4222 391.657 62.2659 391.657 62.0393C391.657 61.4765 391.237 60.7575 390.389 59.8822L381.362 50.3942L379.377 50.1832V58.4051C379.377 61.2264 380.039 62.727 381.362 62.899V63.1959H381.105C380.77 63.1647 380.319 63.1569 379.759 63.1569H375.665C375.105 63.1569 374.669 63.1725 374.358 63.1959H374.101V62.899ZM379.377 48.3231C380.054 48.4638 380.677 48.5654 381.253 48.6201C381.829 48.6748 382.451 48.706 383.128 48.706C386.109 48.706 388.366 48.1668 389.899 47.0961C391.432 46.0253 392.194 44.4388 392.194 42.3521C392.194 40.3747 391.502 38.9289 390.109 38.0067C388.716 37.0922 386.506 36.6311 383.463 36.6311C382.7 36.6311 382.039 36.6702 381.463 36.7405C380.887 36.8109 380.187 36.9281 379.377 37.1001V48.3231Z" fill="#022A42"/>
<path d="M0 62.899C0.311284 62.813 0.536965 62.7114 0.677043 62.5785C0.817121 62.4535 0.996109 62.219 1.22179 61.883C1.33074 61.711 1.43191 61.5547 1.51751 61.414C1.60311 61.2733 1.6965 61.0936 1.81323 60.8826C1.92218 60.6716 2.05447 60.398 2.19455 60.0541C2.33463 59.7181 2.5214 59.2882 2.7393 58.7802C3.05058 57.9908 3.29961 57.3656 3.50195 56.9123C3.6965 56.459 3.82101 56.162 3.88327 56.0213L10.2957 40.1325C10.5759 39.4525 10.7938 38.8117 10.9494 38.2021C11.1051 37.5924 11.1829 37.1079 11.1829 36.7406C11.1829 35.8652 10.7471 35.3572 9.87549 35.2165V34.9196L10.1323 34.9586C10.4436 34.9586 10.7471 34.9586 11.0584 34.9821C11.3696 34.9977 11.7043 35.0055 12.07 35.0055C12.4047 35.0055 12.7782 35.0055 13.1907 34.9821C13.5953 34.9664 14.1712 34.943 14.9027 34.9196C14.8482 35.0602 14.8171 35.1618 14.8171 35.2165V35.4276C14.8171 35.6229 14.8638 35.8652 14.965 36.1466C15.0661 36.4279 15.284 36.9907 15.6187 37.8425L24.3969 58.5145C24.4514 58.6552 24.6381 59.0381 24.9416 59.6555C25.2529 60.3355 25.5019 60.8279 25.7043 61.1405C26.2412 62.1331 26.856 62.7114 27.5642 62.8755V63.1725C27.2296 63.1412 26.7782 63.1334 26.2179 63.1334H21.6187C21.1128 63.1334 20.7082 63.1491 20.3969 63.1725H20.2257V62.8755C21.0117 62.7895 21.4086 62.3128 21.4086 61.4375C21.4086 60.82 21.1984 59.9682 20.7782 58.8974L18.249 52.5825H7.78988L6.22568 56.8185C5.82879 57.8111 5.55642 58.6161 5.40078 59.2335C5.24514 59.8587 5.16731 60.4058 5.16731 60.8826C5.16731 62.094 5.63424 62.7583 6.56031 62.8755V63.1725H6.35019C5.89883 63.1412 5.40856 63.1334 4.87159 63.1334H1.5642C1.08949 63.1334 0.638132 63.1491 0.217899 63.1725H0.0077821V62.8755L0 62.899ZM17.5486 50.996L12.8249 39.304L8.39689 50.996H17.5486Z" fill="#022A42"/>
<path d="M31.4397 62.899C31.8366 62.8677 32.1557 62.727 32.4125 62.4769C32.7782 62.1096 33.0272 61.6485 33.1518 61.1014C33.2763 60.5543 33.3385 59.6555 33.3385 58.4129V39.5151C33.3385 38.1005 33.2062 37.0923 32.9339 36.4826C32.6693 35.873 32.1712 35.4588 31.4397 35.2322V34.9352L31.6965 34.9743H32.7938C33.3541 34.9743 34.1012 34.9899 35.0272 35.0133H35.8677C36.5136 35.0133 37.0506 35.0133 37.4708 34.9899C37.8911 34.9743 38.2179 34.9664 38.4436 34.9664L38.6148 34.9274V35.2244C37.8833 35.3963 37.3852 35.7871 37.1206 36.4123C36.856 37.0375 36.716 38.0614 36.716 39.5072V61.1952L46.2101 61.0233C47.3385 60.9685 48.179 60.8669 48.7393 60.7263C49.1362 60.6168 49.4241 60.4605 49.6265 60.2573C49.8288 60.0541 49.9922 59.7181 50.1323 59.2413H50.428C50.3969 59.6087 50.3891 59.9056 50.3891 60.1323V62.1643C50.3891 62.5316 50.4047 62.8677 50.428 63.1803V63.5164C50.2568 63.4304 50.0934 63.3679 49.9222 63.3288C49.751 63.2897 49.5642 63.2585 49.3541 63.2428C49.144 63.2272 48.8794 63.2116 48.5759 63.2038C48.2646 63.1881 47.8833 63.1803 47.4397 63.1803H31.4553V62.8833L31.4397 62.899Z" fill="#022A42"/>
<path d="M56.5525 62.899C56.8326 62.8443 57.0427 62.7896 57.1828 62.727C57.3229 62.6723 57.463 62.5707 57.603 62.43C57.8832 62.1487 58.0777 61.8126 58.1945 61.414C58.249 61.1561 58.3034 60.906 58.3423 60.6481C58.3813 60.3902 58.4046 60.1089 58.4046 59.8041C58.4357 59.6634 58.4435 59.4758 58.4435 59.257V39.5151C58.4435 38.1005 58.3112 37.0923 58.0388 36.4827C57.7742 35.8731 57.2762 35.4588 56.5447 35.2322V34.9352H56.8015L59.4163 35.0212C59.8132 35.0212 60.389 35.0055 61.1439 34.9821C61.9065 34.9508 62.8871 34.8961 64.0933 34.8102C64.6536 34.7789 65.1517 34.7633 65.5875 34.7476C66.0233 34.732 66.4357 34.7242 66.8326 34.7242C67.533 34.7242 68.2178 34.7476 68.8793 34.7867C69.5408 34.8258 70.2256 34.9039 70.926 35.0212C73.2062 35.3572 74.9338 36.0841 76.1167 37.2017C77.2995 38.3193 77.891 39.7964 77.891 41.6252C77.891 43.2352 77.3307 44.6342 76.2023 45.8222C75.6108 46.4161 74.9416 46.8929 74.2023 47.2602C73.4552 47.6275 72.4513 47.9636 71.1828 48.2762L70.9727 48.3153C76.7392 48.878 79.6186 51.207 79.6186 55.3023C79.6186 56.037 79.4941 56.7638 79.2373 57.4829C78.9805 58.2019 78.6147 58.8896 78.14 59.5383C77.1283 60.8904 75.7976 61.8752 74.1556 62.4848C72.5135 63.0944 70.3657 63.3992 67.7198 63.3992C67.3229 63.3992 66.8793 63.3992 66.3735 63.3757C65.8676 63.3601 65.2918 63.3367 64.6458 63.3132C63.8287 63.2819 63.1517 63.2585 62.6225 63.2272C62.0855 63.196 61.6342 63.1725 61.2528 63.1413C60.8715 63.11 60.5447 63.1022 60.2645 63.1022H59.463C59.0427 63.1022 58.6069 63.1022 58.1556 63.1256C57.7042 63.1413 57.2295 63.1647 56.7237 63.1882H56.5525V62.8912V62.899ZM63.0894 47.479C63.5641 47.5338 64.1011 47.5728 64.6925 47.5885C65.284 47.6041 65.8443 47.6119 66.3813 47.6119C71.5564 47.6119 74.14 45.8222 74.14 42.2349C74.14 38.6476 71.4552 36.8578 66.0855 36.8578C65.4396 36.8578 64.817 36.8891 64.2256 36.9438C63.6342 36.9985 62.8326 37.1001 61.8209 37.2408V47.3696C62.3579 47.4243 62.7781 47.4712 63.0894 47.4947V47.479ZM63.0894 61.203C64.4357 61.4609 65.8754 61.586 67.3929 61.586C68.8015 61.586 69.9766 61.4687 70.9338 61.2265C71.891 60.9842 72.7159 60.6012 73.4241 60.062C74.07 59.554 74.6069 58.8662 75.0272 58.0065C75.4474 57.1468 75.6575 56.2793 75.6575 55.4039C75.6575 53.2312 74.6614 51.59 72.6614 50.488C72.2412 50.2614 71.8209 50.0738 71.3929 49.9175C70.9727 49.7612 70.5058 49.6439 69.9999 49.558C69.4941 49.472 68.9338 49.4095 68.3112 49.3704C67.6886 49.3313 66.9727 49.3079 66.1634 49.3079C65.4318 49.3079 64.7626 49.3235 64.1634 49.3469C63.5563 49.3782 62.7781 49.4329 61.8209 49.5189V60.9607C62.3579 61.1014 62.7781 61.1874 63.0894 61.2187V61.203Z" fill="#022A42"/>
<path d="M85.4863 62.899C85.8832 62.8677 86.2023 62.727 86.4591 62.4769C86.8248 62.1096 87.0739 61.6485 87.1984 61.1014C87.3229 60.5543 87.3852 59.6555 87.3852 58.4129V39.5151C87.3852 38.1005 87.2529 37.0923 86.9805 36.4827C86.7159 35.873 86.2178 35.4588 85.4863 35.2322V34.9352H101.728C101.922 34.9352 102.148 34.9196 102.405 34.8961C102.63 34.8961 102.817 34.8961 102.973 34.8727C103.128 34.857 103.276 34.8414 103.416 34.8101C103.556 34.7789 103.681 34.7554 103.798 34.7242C103.907 34.6929 104.093 34.6538 104.342 34.5991C104.288 34.9664 104.257 35.2634 104.257 35.4901V36.4201C104.257 36.7327 104.257 37.0297 104.28 37.3111C104.296 37.5925 104.303 37.8738 104.303 38.1552L104.342 38.4131H104.047C103.907 38.1864 103.79 38.0145 103.689 37.9051C103.588 37.7957 103.455 37.6784 103.292 37.569C103.012 37.3736 102.599 37.2251 102.047 37.1235C101.502 37.0219 100.848 36.9594 100.086 36.9359L90.7626 36.85V47.354L99.7509 47.182C100.817 47.182 101.58 47.1039 102.031 46.9476C102.482 46.7913 102.778 46.5177 102.918 46.1191H103.214C103.183 46.4005 103.175 46.6975 103.175 47.0101V49.4642C103.175 49.6595 103.191 49.9018 103.214 50.1832H102.918C102.864 50.0112 102.724 49.8549 102.498 49.7143C102.272 49.5423 102.023 49.4407 101.735 49.3938C101.455 49.3547 100.825 49.3313 99.8365 49.3313L90.7704 49.2062V61.1952L100.809 61.0233C101.93 60.9685 102.778 60.8669 103.338 60.7263C103.735 60.6168 104.031 60.4605 104.226 60.2573C104.42 60.0619 104.607 59.7181 104.77 59.2413H105.027C104.996 59.6087 104.988 59.9056 104.988 60.1323V62.1643C104.988 62.5316 105.004 62.8677 105.027 63.1803V63.5164C104.856 63.4304 104.693 63.3679 104.521 63.3288C104.35 63.2897 104.163 63.2585 103.953 63.2428C103.743 63.2272 103.479 63.2116 103.175 63.2038C102.864 63.1881 102.482 63.1803 102.039 63.1803H85.5019V62.8833L85.4863 62.899Z" fill="#022A42"/>
<path d="M111.393 62.899C111.79 62.8677 112.109 62.727 112.366 62.4769C112.732 62.1096 112.981 61.6485 113.105 61.1014C113.23 60.5543 113.292 59.6556 113.292 58.4129V39.5151C113.292 38.1005 113.16 37.0923 112.887 36.4827C112.623 35.8731 112.125 35.4588 111.393 35.2322V34.9352L111.65 34.9743C111.961 34.9743 112.335 34.9743 112.771 34.9977C113.206 35.0134 113.704 35.0212 114.265 35.0212C114.716 35.0212 115.175 35.0212 115.658 34.9977C116.132 34.9821 116.529 34.9743 116.841 34.9743L122.366 34.8023H122.957C126.272 34.8023 128.817 35.4276 130.592 36.6859C132.366 37.9442 133.253 39.7574 133.253 42.1333C133.253 44.5092 132.374 46.4161 130.615 47.8698C128.856 49.3235 126.444 50.1207 123.377 50.2614L130.763 58.1394C130.848 58.2566 131.634 58.9991 133.128 60.3824C133.525 60.7497 133.86 61.0702 134.14 61.3359C134.42 61.6016 134.662 61.8126 134.856 61.9533C135.113 62.1487 135.401 62.3363 135.72 62.5004C136.047 62.6723 136.358 62.7974 136.669 62.8834V63.1803H136.459C136.202 63.1491 135.782 63.1413 135.191 63.1413H129.961C129.23 63.1413 128.724 63.1569 128.444 63.1803H128.234V62.8834C128.514 62.7427 128.7 62.6254 128.802 62.5238C128.903 62.4222 128.949 62.2659 128.949 62.0393C128.949 61.4766 128.529 60.7575 127.681 59.8822L118.654 50.3942L116.669 50.1832V58.4051C116.669 61.2265 117.331 62.727 118.654 62.899V63.196H118.397C118.062 63.1647 117.611 63.1569 117.051 63.1569H112.957C112.397 63.1569 111.961 63.1725 111.65 63.196H111.393V62.899ZM116.669 48.3231C117.346 48.4638 117.969 48.5654 118.545 48.6201C119.121 48.6748 119.743 48.7061 120.42 48.7061C123.401 48.7061 125.658 48.1668 127.191 47.0961C128.724 46.0254 129.486 44.4388 129.486 42.3521C129.486 40.3748 128.794 38.9289 127.401 38.0067C126.008 37.0923 123.798 36.6312 120.755 36.6312C119.992 36.6312 119.331 36.6702 118.755 36.7406C118.179 36.8109 117.479 36.9281 116.669 37.1001V48.3231Z" fill="#022A42"/>
<path d="M146.109 62.899C146.809 62.7583 147.307 62.3675 147.588 61.7345C147.868 61.1014 148.008 60.0776 148.008 58.663V36.5452L143.16 36.7171C142.428 36.7484 141.829 36.7875 141.37 36.8422C140.903 36.8969 140.529 36.9907 140.233 37.1157C139.938 37.2408 139.712 37.4205 139.556 37.6472C139.401 37.8738 139.284 38.1552 139.198 38.4912H138.942C138.973 38.0926 138.981 37.7957 138.981 37.6003V35.9043C138.981 35.623 138.965 35.2947 138.942 34.9274V34.5913C139.113 34.6773 139.276 34.7398 139.447 34.7789C139.619 34.818 139.805 34.8492 140.016 34.8649C140.226 34.8805 140.483 34.8961 140.778 34.9039C141.074 34.9196 141.447 34.9274 141.899 34.9274H157.214C157.665 34.9274 158.047 34.9274 158.35 34.9039C158.661 34.8883 158.918 34.8727 159.128 34.8649C159.339 34.8492 159.525 34.8258 159.697 34.7789C159.868 34.7398 160.031 34.6695 160.202 34.5913V34.9274C160.171 35.2947 160.163 35.623 160.163 35.9043V37.6003C160.163 37.7957 160.179 38.0926 160.202 38.4912H159.946C159.86 38.1552 159.751 37.8738 159.611 37.6472C159.471 37.4205 159.253 37.2408 158.957 37.1157C158.661 36.9907 158.272 36.8969 157.798 36.8422C157.315 36.7875 156.716 36.7406 155.984 36.7171L151.385 36.5452V58.663C151.385 60.0776 151.525 61.1014 151.805 61.7345C152.086 62.3675 152.576 62.7583 153.284 62.899V63.196C153.027 63.196 152.809 63.196 152.63 63.1725C152.444 63.1569 152.226 63.1491 151.977 63.1491H147.424C147.198 63.1491 146.988 63.1491 146.794 63.1725C146.599 63.1881 146.374 63.196 146.117 63.196V62.899H146.109Z" fill="#022A42"/>
</svg>
